<svg version="1.1" viewBox="0.0 0.0 1154.0 712.0" fill="none" stroke="none" stroke-linecap="square" stroke-miterlimit="10" width="1154" height="712" xmlns:xlink="http://www.w3.org/1999/xlink" xmlns="http://www.w3.org/2000/svg"><path fill="#ffffff" d="M0 0L1154.0 0L1154.0 712.0L0 712.0L0 0Z" fill-rule="nonzero"/><path stroke="#cccccc" stroke-width="1.0" stroke-linecap="butt" d="M203.5 128.5L203.5 624.5" fill-rule="nonzero"/><path stroke="#cccccc" stroke-width="1.0" stroke-linecap="butt" d="M372.5 128.5L372.5 624.5" fill-rule="nonzero"/><path stroke="#cccccc" stroke-width="1.0" stroke-linecap="butt" d="M542.5 128.5L542.5 624.5" fill-rule="nonzero"/><path stroke="#cccccc" stroke-width="1.0" stroke-linecap="butt" d="M711.5 128.5L711.5 624.5" fill-rule="nonzero"/><path stroke="#cccccc" stroke-width="1.0" stroke-linecap="butt" d="M881.5 128.5L881.5 624.5" fill-rule="nonzero"/><path stroke="#cccccc" stroke-width="1.0" stroke-linecap="butt" d="M1050.5 128.5L1050.5 624.5" fill-rule="nonzero"/><path stroke="#333333" stroke-width="1.0" stroke-linecap="butt" d="M101.5 624.5L1118.5 624.5" fill-rule="nonzero"/><path stroke="#cccccc" stroke-width="1.0" stroke-linecap="butt" d="M101.5 525.5L1118.5 525.5" fill-rule="nonzero"/><path stroke="#cccccc" stroke-width="1.0" stroke-linecap="butt" d="M101.5 425.5L1118.5 425.5" fill-rule="nonzero"/><path stroke="#cccccc" stroke-width="1.0" stroke-linecap="butt" d="M101.5 326.5L1118.5 326.5" fill-rule="nonzero"/><path stroke="#cccccc" stroke-width="1.0" stroke-linecap="butt" d="M101.5 227.5L1118.5 227.5" fill-rule="nonzero"/><path stroke="#cccccc" stroke-width="1.0" stroke-linecap="butt" d="M101.5 128.5L1118.5 128.5" fill-rule="nonzero"/><clipPath id="id_0"><path d="M101.6 128.06667L1118.4 128.06667L1118.4 624.4L101.6 624.4L101.6 128.06667Z" clip-rule="nonzero"/></clipPath><path stroke="#4285f4" stroke-width="2.0" stroke-linecap="butt" clip-path="url(#id_0)" d="M101.6 586.09894L169.38667 560.7502L304.96 510.24335L576.1067 407.12512L1118.4 203.9064" fill-rule="nonzero"/><path stroke="#ea4335" stroke-width="2.0" stroke-linecap="butt" clip-path="url(#id_0)" d="M101.6 600.1194L169.38667 585.3485L304.96 556.1442L576.1067 495.7901L1118.4 377.7819" fill-rule="nonzero"/><path fill="#000000" fill-opacity="0.0" clip-path="url(#id_0)" d="M104.6 586.09894C104.6 587.7558 103.25685 589.09894 101.6 589.09894C99.943146 589.09894 98.6 587.7558 98.6 586.09894C98.6 584.4421 99.943146 583.09894 101.6 583.09894C103.25685 583.09894 104.6 584.4421 104.6 586.09894Z" fill-rule="nonzero"/><path fill="#000000" fill-opacity="0.0" clip-path="url(#id_0)" d="M172.38667 560.7502C172.38667 562.40704 171.04352 563.7502 169.38667 563.7502C167.72981 563.7502 166.38667 562.40704 166.38667 560.7502C166.38667 559.0934 167.72981 557.7502 169.38667 557.7502C171.04352 557.7502 172.38667 559.0934 172.38667 560.7502Z" fill-rule="nonzero"/><path fill="#000000" fill-opacity="0.0" clip-path="url(#id_0)" d="M307.96 510.24335C307.96 511.90018 306.61685 513.24335 304.96 513.24335C303.30313 513.24335 301.96 511.90018 301.96 510.24335C301.96 508.5865 303.30313 507.24335 304.96 507.24335C306.61685 507.24335 307.96 508.5865 307.96 510.24335Z" fill-rule="nonzero"/><path fill="#000000" fill-opacity="0.0" clip-path="url(#id_0)" d="M579.1067 407.12512C579.1067 408.78198 577.76355 410.12512 576.1067 410.12512C574.4498 410.12512 573.1067 408.78198 573.1067 407.12512C573.1067 405.46826 574.4498 404.12512 576.1067 404.12512C577.76355 404.12512 579.1067 405.46826 579.1067 407.12512Z" fill-rule="nonzero"/><path fill="#000000" fill-opacity="0.0" clip-path="url(#id_0)" d="M1121.4 203.9064C1121.4 205.56325 1120.0569 206.9064 1118.4 206.9064C1116.7432 206.9064 1115.4 205.56325 1115.4 203.9064C1115.4 202.24954 1116.7432 200.9064 1118.4 200.9064C1120.0569 200.9064 1121.4 202.24954 1121.4 203.9064Z" fill-rule="nonzero"/><path fill="#000000" fill-opacity="0.0" clip-path="url(#id_0)" d="M104.6 600.1194C104.6 601.77625 103.25685 603.1194 101.6 603.1194C99.943146 603.1194 98.6 601.77625 98.6 600.1194C98.6 598.4625 99.943146 597.1194 101.6 597.1194C103.25685 597.1194 104.6 598.4625 104.6 600.1194Z" fill-rule="nonzero"/><path fill="#000000" fill-opacity="0.0" clip-path="url(#id_0)" d="M172.38667 585.3485C172.38667 587.0054 171.04352 588.3485 169.38667 588.3485C167.72981 588.3485 166.38667 587.0054 166.38667 585.3485C166.38667 583.69165 167.72981 582.3485 169.38667 582.3485C171.04352 582.3485 172.38667 583.69165 172.38667 585.3485Z" fill-rule="nonzero"/><path fill="#000000" fill-opacity="0.0" clip-path="url(#id_0)" d="M307.96 556.1442C307.96 557.8011 306.61685 559.1442 304.96 559.1442C303.30313 559.1442 301.96 557.8011 301.96 556.1442C301.96 554.48737 303.30313 553.1442 304.96 553.1442C306.61685 553.1442 307.96 554.48737 307.96 556.1442Z" fill-rule="nonzero"/><path fill="#000000" fill-opacity="0.0" clip-path="url(#id_0)" d="M579.1067 495.7901C579.1067 497.44696 577.76355 498.7901 576.1067 498.7901C574.4498 498.7901 573.1067 497.44696 573.1067 495.7901C573.1067 494.13324 574.4498 492.7901 576.1067 492.7901C577.76355 492.7901 579.1067 494.13324 579.1067 495.7901Z" fill-rule="nonzero"/><path fill="#000000" fill-opacity="0.0" clip-path="url(#id_0)" d="M1121.4 377.7819C1121.4 379.43875 1120.0569 380.7819 1118.4 380.7819C1116.7432 380.7819 1115.4 379.43875 1115.4 377.7819C1115.4 376.12503 1116.7432 374.7819 1118.4 374.7819C1120.0569 374.7819 1121.4 376.12503 1121.4 377.7819Z" fill-rule="nonzero"/><path fill="#000000" d="M546.9219 673.4L546.9219 664.8063L548.0781 664.8063L552.59375 671.5563L552.59375 664.8063L553.6875 664.8063L553.6875 673.4L552.5156 673.4L548.0 666.65L548.0 673.4L546.9219 673.4ZM559.875 673.4L559.875 672.47815Q559.1406 673.54065 557.8906 673.54065Q557.34375 673.54065 556.8594 673.3375Q556.3906 673.1188 556.15625 672.8063Q555.9219 672.47815 555.8281 672.0094Q555.7656 671.7125 555.7656 671.025L555.7656 667.1813L556.8281 667.1813L556.8281 670.6344Q556.8281 671.4469 556.8906 671.7438Q556.9844 672.15 557.2969 672.4Q557.625 672.6344 558.1094 672.6344Q558.5781 672.6344 558.9844 672.4Q559.40625 672.15 559.5781 671.72815Q559.7656 671.3063 559.7656 670.5094L559.7656 667.1813L560.8125 667.1813L560.8125 673.4L559.875 673.4ZM562.7969 673.4L562.7969 667.1813L563.7344 667.1813L563.7344 668.0563Q564.03125 667.5875 564.5156 667.3219Q565.0 667.04065 565.625 667.04065Q566.3125 667.04065 566.75 667.3219Q567.2031 667.60315 567.375 668.1188Q568.125 667.04065 569.2969 667.04065Q570.2344 667.04065 570.71875 667.5563Q571.21875 668.0563 571.21875 669.1344L571.21875 673.4L570.1719 673.4L570.1719 669.47815Q570.1719 668.85315 570.0625 668.5719Q569.96875 668.29065 569.7031 668.1188Q569.4375 667.9469 569.0625 667.9469Q568.40625 667.9469 567.96875 668.3844Q567.5469 668.8219 567.5469 669.79065L567.5469 673.4L566.4844 673.4L566.4844 669.35315Q566.4844 668.65 566.21875 668.3063Q565.96875 667.9469 565.3906 667.9469Q564.9375 667.9469 564.5625 668.1813Q564.1875 668.41565 564.0156 668.8688Q563.84375 669.3219 563.84375 670.16565L563.84375 673.4L562.7969 673.4ZM573.7656 673.4L572.78125 673.4L572.78125 664.8063L573.84375 664.8063L573.84375 667.8688Q574.5156 667.04065 575.5469 667.04065Q576.125 667.04065 576.625 667.275Q577.1406 667.4938 577.46875 667.91565Q577.8125 668.3375 578.0 668.9313Q578.1875 669.525 578.1875 670.1969Q578.1875 671.79065 577.3906 672.66565Q576.59375 673.54065 575.5 673.54065Q574.3906 673.54065 573.7656 672.6188L573.7656 673.4ZM573.75 670.2438Q573.75 671.35315 574.0625 671.85315Q574.5625 672.66565 575.40625 672.66565Q576.09375 672.66565 576.59375 672.0719Q577.1094 671.47815 577.1094 670.275Q577.1094 669.0563 576.625 668.47815Q576.1406 667.9 575.4531 667.9Q574.7656 667.9 574.25 668.5094Q573.75 669.10315 573.75 670.2438ZM584.0469 671.4L585.1406 671.525Q584.8906 672.47815 584.1875 673.0094Q583.4844 673.54065 582.40625 673.54065Q581.0469 673.54065 580.2344 672.6969Q579.4375 671.85315 579.4375 670.3375Q579.4375 668.775 580.25 667.91565Q581.0625 667.04065 582.34375 667.04065Q583.59375 667.04065 584.375 667.8844Q585.1719 668.72815 585.1719 670.275Q585.1719 670.3688 585.1719 670.5563L580.53125 670.5563Q580.59375 671.5875 581.1094 672.1344Q581.625 672.66565 582.40625 672.66565Q582.9844 672.66565 583.3906 672.3688Q583.8125 672.0563 584.0469 671.4ZM580.59375 669.6969L584.0625 669.6969Q584.0 668.9 583.6719 668.5094Q583.15625 667.9 582.3594 667.9Q581.625 667.9 581.125 668.3844Q580.6406 668.8688 580.59375 669.6969ZM586.78125 673.4L586.78125 667.1813L587.7344 667.1813L587.7344 668.1188Q588.09375 667.4625 588.3906 667.2594Q588.7031 667.04065 589.0781 667.04065Q589.6094 667.04065 590.15625 667.3688L589.7969 668.35315Q589.40625 668.1188 589.03125 668.1188Q588.6719 668.1188 588.3906 668.3375Q588.125 668.54065 588.0156 668.91565Q587.8281 669.47815 587.8281 670.1344L587.8281 673.4L586.78125 673.4ZM593.40625 670.29065Q593.40625 668.5563 594.3594 667.72815Q595.15625 667.04065 596.3125 667.04065Q597.59375 667.04065 598.40625 667.8844Q599.2344 668.7125 599.2344 670.1969Q599.2344 671.4 598.875 672.0875Q598.5156 672.775 597.8125 673.16565Q597.125 673.54065 596.3125 673.54065Q595.0156 673.54065 594.2031 672.7125Q593.40625 671.8688 593.40625 670.29065ZM594.4844 670.29065Q594.4844 671.47815 595.0 672.0719Q595.53125 672.66565 596.3125 672.66565Q597.1094 672.66565 597.625 672.0719Q598.1406 671.47815 598.1406 670.2594Q598.1406 669.10315 597.6094 668.5094Q597.09375 667.91565 596.3125 667.91565Q595.53125 667.91565 595.0 668.5094Q594.4844 669.0875 594.4844 670.29065ZM601.0469 673.4L601.0469 667.9938L600.1094 667.9938L600.1094 667.1813L601.0469 667.1813L601.0469 666.5094Q601.0469 665.8844 601.15625 665.5875Q601.3125 665.16565 601.6875 664.91565Q602.0781 664.66565 602.7656 664.66565Q603.21875 664.66565 603.75 664.775L603.59375 665.6813Q603.2656 665.6344 602.96875 665.6344Q602.4844 665.6344 602.28125 665.8375Q602.09375 666.04065 602.09375 666.60315L602.09375 667.1813L603.3125 667.1813L603.3125 667.9938L602.09375 667.9938L602.09375 673.4L601.0469 673.4ZM606.5469 670.6344L607.6094 670.54065Q607.6875 671.1969 607.96875 671.60315Q608.25 672.0094 608.8281 672.275Q609.4219 672.525 610.15625 672.525Q610.7969 672.525 611.2969 672.3375Q611.7969 672.1344 612.03125 671.8063Q612.28125 671.4625 612.28125 671.0719Q612.28125 670.66565 612.0469 670.3688Q611.8125 670.0563 611.28125 669.85315Q610.9219 669.7125 609.7344 669.4313Q608.5625 669.15 608.09375 668.9Q607.46875 668.5719 607.1719 668.10315Q606.875 667.6188 606.875 667.025Q606.875 666.3844 607.2344 665.8219Q607.6094 665.2438 608.3125 664.9625Q609.03125 664.66565 609.8906 664.66565Q610.84375 664.66565 611.5781 664.97815Q612.3125 665.275 612.7031 665.8844Q613.09375 666.47815 613.125 667.22815L612.03125 667.3063Q611.9375 666.4938 611.4219 666.0875Q610.9219 665.66565 609.9375 665.66565Q608.90625 665.66565 608.4375 666.04065Q607.96875 666.41565 607.96875 666.9469Q607.96875 667.41565 608.2969 667.7125Q608.625 668.0094 610.0 668.3219Q611.3906 668.6344 611.90625 668.8688Q612.65625 669.22815 613.0156 669.7594Q613.375 670.275 613.375 670.97815Q613.375 671.66565 612.9844 672.275Q612.59375 672.8688 611.8594 673.2125Q611.125 673.54065 610.2031 673.54065Q609.03125 673.54065 608.2344 673.2125Q607.4531 672.8688 607.0 672.1813Q606.5625 671.4938 606.5469 670.6344ZM618.8594 672.6344Q618.2656 673.1344 617.71875 673.3375Q617.1875 673.54065 616.5625 673.54065Q615.53125 673.54065 614.9844 673.04065Q614.4375 672.54065 614.4375 671.7594Q614.4375 671.3063 614.6406 670.9313Q614.84375 670.54065 615.1875 670.3219Q615.53125 670.0875 615.9531 669.97815Q616.25 669.8844 616.8906 669.8063Q618.15625 669.66565 618.7656 669.4469Q618.7656 669.22815 618.7656 669.1813Q618.7656 668.525 618.46875 668.2594Q618.0625 667.91565 617.2656 667.91565Q616.53125 667.91565 616.1719 668.1813Q615.8125 668.4313 615.6406 669.0875L614.6094 668.9469Q614.75 668.29065 615.0781 667.8844Q615.40625 667.47815 616.0156 667.2594Q616.625 667.04065 617.4219 667.04065Q618.21875 667.04065 618.71875 667.22815Q619.21875 667.41565 619.4531 667.6969Q619.6875 667.97815 619.78125 668.41565Q619.8281 668.6813 619.8281 669.3844L619.8281 670.79065Q619.8281 672.2594 619.8906 672.65Q619.96875 673.04065 620.1719 673.4L619.0625 673.4Q618.90625 673.0719 618.8594 672.6344ZM618.7656 670.275Q618.1875 670.5094 617.0469 670.6813Q616.3906 670.775 616.125 670.9Q615.8594 671.0094 615.7031 671.22815Q615.5625 671.4469 615.5625 671.72815Q615.5625 672.15 615.875 672.4313Q616.2031 672.7125 616.8125 672.7125Q617.4219 672.7125 617.8906 672.4469Q618.375 672.1813 618.59375 671.7125Q618.7656 671.35315 618.7656 670.66565L618.7656 670.275ZM621.7969 673.4L621.7969 667.1813L622.7344 667.1813L622.7344 668.0563Q623.03125 667.5875 623.5156 667.3219Q624.0 667.04065 624.625 667.04065Q625.3125 667.04065 625.75 667.3219Q626.2031 667.60315 626.375 668.1188Q627.125 667.04065 628.2969 667.04065Q629.2344 667.04065 629.71875 667.5563Q630.21875 668.0563 630.21875 669.1344L630.21875 673.4L629.1719 673.4L629.1719 669.47815Q629.1719 668.85315 629.0625 668.5719Q628.96875 668.29065 628.7031 668.1188Q628.4375 667.9469 628.0625 667.9469Q627.40625 667.9469 626.96875 668.3844Q626.5469 668.8219 626.5469 669.79065L626.5469 673.4L625.4844 673.4L625.4844 669.35315Q625.4844 668.65 625.21875 668.3063Q624.96875 667.9469 624.3906 667.9469Q623.9375 667.9469 623.5625 668.1813Q623.1875 668.41565 623.0156 668.8688Q622.84375 669.3219 622.84375 670.16565L622.84375 673.4L621.7969 673.4ZM631.7969 675.79065L631.7969 667.1813L632.75 667.1813L632.75 667.97815Q633.09375 667.5094 633.5156 667.275Q633.9531 667.04065 634.5625 667.04065Q635.3594 667.04065 635.96875 667.4469Q636.5781 667.85315 636.875 668.60315Q637.1875 669.35315 637.1875 670.2438Q637.1875 671.1969 636.84375 671.9625Q636.5156 672.72815 635.8594 673.1344Q635.2031 673.54065 634.4844 673.54065Q633.9531 673.54065 633.53125 673.3219Q633.1094 673.0875 632.84375 672.7594L632.84375 675.79065L631.7969 675.79065ZM632.75 670.3219Q632.75 671.525 633.2344 672.10315Q633.71875 672.66565 634.40625 672.66565Q635.1094 672.66565 635.6094 672.0719Q636.1094 671.47815 636.1094 670.22815Q636.1094 669.04065 635.625 668.4625Q635.1406 667.8688 634.4531 667.8688Q633.78125 667.8688 633.2656 668.4938Q632.75 669.1188 632.75 670.3219ZM638.7656 673.4L638.7656 664.8063L639.8281 664.8063L639.8281 673.4L638.7656 673.4ZM646.0469 671.4L647.1406 671.525Q646.8906 672.47815 646.1875 673.0094Q645.4844 673.54065 644.40625 673.54065Q643.0469 673.54065 642.2344 672.6969Q641.4375 671.85315 641.4375 670.3375Q641.4375 668.775 642.25 667.91565Q643.0625 667.04065 644.34375 667.04065Q645.59375 667.04065 646.375 667.8844Q647.1719 668.72815 647.1719 670.275Q647.1719 670.3688 647.1719 670.5563L642.53125 670.5563Q642.59375 671.5875 643.1094 672.1344Q643.625 672.66565 644.40625 672.66565Q644.9844 672.66565 645.3906 672.3688Q645.8125 672.0563 646.0469 671.4ZM642.59375 669.6969L646.0625 669.6969Q646.0 668.9 645.6719 668.5094Q645.15625 667.9 644.3594 667.9Q643.625 667.9 643.125 668.3844Q642.6406 668.8688 642.59375 669.6969ZM648.375 671.54065L649.40625 671.3844Q649.5 672.0094 649.8906 672.3375Q650.2969 672.66565 651.03125 672.66565Q651.75 672.66565 652.09375 672.3844Q652.4531 672.0875 652.4531 671.6813Q652.4531 671.3219 652.1406 671.1188Q651.9219 670.97815 651.0625 670.7594Q649.90625 670.4625 649.4531 670.2594Q649.0156 670.04065 648.78125 669.66565Q648.5469 669.29065 648.5469 668.8219Q648.5469 668.41565 648.7344 668.0563Q648.9219 667.6969 649.25 667.4625Q649.5 667.29065 649.9219 667.16565Q650.34375 667.04065 650.84375 667.04065Q651.5625 667.04065 652.1094 667.2594Q652.6719 667.4625 652.9375 667.8219Q653.2031 668.1813 653.2969 668.775L652.2656 668.91565Q652.2031 668.4469 651.8594 668.1813Q651.53125 667.9 650.90625 667.9Q650.1875 667.9 649.875 668.15Q649.5625 668.3844 649.5625 668.7125Q649.5625 668.91565 649.6875 669.0719Q649.8281 669.2438 650.09375 669.35315Q650.25 669.41565 651.03125 669.6188Q652.15625 669.9313 652.59375 670.1188Q653.03125 670.3063 653.28125 670.66565Q653.53125 671.025 653.53125 671.5719Q653.53125 672.10315 653.21875 672.5719Q652.9219 673.025 652.34375 673.29065Q651.7656 673.54065 651.03125 673.54065Q649.8125 673.54065 649.1719 673.04065Q648.5469 672.525 648.375 671.54065ZM659.8125 675.9313Q658.9375 674.8219 658.3281 673.35315Q657.7344 671.8688 657.7344 670.29065Q657.7344 668.9 658.1719 667.6188Q658.7031 666.1344 659.8125 664.66565L660.5625 664.66565Q659.8594 665.8844 659.625 666.4Q659.2656 667.2125 659.0625 668.0875Q658.8125 669.1813 658.8125 670.29065Q658.8125 673.1188 660.5625 675.9313L659.8125 675.9313ZM661.9219 673.4L661.9219 664.8063L663.0781 664.8063L667.59375 671.5563L667.59375 664.8063L668.6875 664.8063L668.6875 673.4L667.5156 673.4L663.0 666.65L663.0 673.4L661.9219 673.4ZM671.4844 675.9313L670.7344 675.9313Q672.4844 673.1188 672.4844 670.29065Q672.4844 669.1969 672.2344 668.10315Q672.03125 667.22815 671.6719 666.41565Q671.4375 665.9 670.7344 664.66565L671.4844 664.66565Q672.5781 666.1344 673.1094 667.6188Q673.5625 668.9 673.5625 670.29065Q673.5625 671.8688 672.9531 673.35315Q672.34375 674.8219 671.4844 675.9313Z" fill-rule="nonzero"/><path fill="#000000" d="M46.600025 406.12396L39.0219 406.12396L39.0219 408.9521L38.006275 408.9521L38.006275 402.1396L39.0219 402.1396L39.0219 404.98334L46.600025 404.98334L46.600025 406.12396ZM39.225025 401.43646L38.006275 401.43646L38.006275 400.37396L39.225025 400.37396L39.225025 401.43646ZM46.600025 401.43646L40.381275 401.43646L40.381275 400.37396L46.600025 400.37396L46.600025 401.43646ZM46.600025 398.43646L40.381275 398.43646L40.381275 397.49896L41.256275 397.49896Q40.787525 397.2021 40.5219 396.7177Q40.24065 396.23334 40.24065 395.60834Q40.24065 394.92084 40.5219 394.48334Q40.80315 394.0302 41.318775 393.85834Q40.24065 393.10834 40.24065 391.93646Q40.24065 390.99896 40.756275 390.5146Q41.256275 390.0146 42.3344 390.0146L46.600025 390.0146L46.600025 391.06146L42.67815 391.06146Q42.05315 391.06146 41.7719 391.17084Q41.49065 391.2646 41.318775 391.5302Q41.1469 391.79584 41.1469 392.17084Q41.1469 392.8271 41.5844 393.2646Q42.0219 393.68646 42.99065 393.68646L46.600025 393.68646L46.600025 394.74896L42.55315 394.74896Q41.850025 394.74896 41.506275 395.0146Q41.1469 395.2646 41.1469 395.8427Q41.1469 396.29584 41.381275 396.67084Q41.61565 397.04584 42.068775 397.2177Q42.5219 397.3896 43.36565 397.3896L46.600025 397.3896L46.600025 398.43646ZM44.600025 384.18646L44.725025 383.0927Q45.67815 383.3427 46.2094 384.04584Q46.74065 384.74896 46.74065 385.8271Q46.74065 387.18646 45.8969 387.99896Q45.05315 388.79584 43.537525 388.79584Q41.975025 388.79584 41.11565 387.98334Q40.24065 387.17084 40.24065 385.8896Q40.24065 384.6396 41.0844 383.85834Q41.92815 383.06146 43.475025 383.06146Q43.568775 383.06146 43.756275 383.06146L43.756275 387.7021Q44.787525 387.6396 45.3344 387.12396Q45.86565 386.60834 45.86565 385.8271Q45.86565 385.24896 45.568775 384.8427Q45.256275 384.42084 44.600025 384.18646ZM42.8969 387.6396L42.8969 384.17084Q42.100025 384.23334 41.7094 384.56146Q41.100025 385.0771 41.100025 385.87396Q41.100025 386.60834 41.5844 387.10834Q42.068775 387.5927 42.8969 387.6396ZM49.131275 376.42084Q48.0219 377.29584 46.55315 377.9052Q45.068775 378.49896 43.49065 378.49896Q42.100025 378.49896 40.818775 378.06146Q39.3344 377.5302 37.86565 376.42084L37.86565 375.67084Q39.0844 376.37396 39.600025 376.60834Q40.412525 376.9677 41.287525 377.17084Q42.381275 377.42084 43.49065 377.42084Q46.318775 377.42084 49.131275 375.67084L49.131275 376.42084ZM46.600025 370.35834L45.67815 370.35834Q46.74065 371.0927 46.74065 372.3427Q46.74065 372.8896 46.537525 373.37396Q46.318775 373.8427 46.006275 374.0771Q45.67815 374.31146 45.2094 374.4052Q44.912525 374.4677 44.225025 374.4677L40.381275 374.4677L40.381275 373.4052L43.8344 373.4052Q44.6469 373.4052 44.943775 373.3427Q45.350025 373.24896 45.600025 372.93646Q45.8344 372.60834 45.8344 372.12396Q45.8344 371.6552 45.600025 371.24896Q45.350025 370.8271 44.92815 370.6552Q44.506275 370.4677 43.7094 370.4677L40.381275 370.4677L40.381275 369.42084L46.600025 369.42084L46.600025 370.35834ZM43.8344 367.68646L43.74065 366.62396Q44.3969 366.54584 44.80315 366.2646Q45.2094 365.98334 45.475025 365.4052Q45.725025 364.81146 45.725025 364.0771Q45.725025 363.43646 45.537525 362.93646Q45.3344 362.43646 45.006275 362.2021Q44.662525 361.9521 44.2719 361.9521Q43.86565 361.9521 43.568775 362.18646Q43.256275 362.42084 43.05315 362.9521Q42.912525 363.31146 42.631275 364.49896Q42.350025 365.67084 42.100025 366.1396Q41.7719 366.7646 41.30315 367.06146Q40.818775 367.35834 40.225025 367.35834Q39.5844 367.35834 39.0219 366.99896Q38.443775 366.62396 38.162525 365.92084Q37.86565 365.2021 37.86565 364.3427Q37.86565 363.3896 38.17815 362.6552Q38.475025 361.92084 39.0844 361.5302Q39.67815 361.1396 40.42815 361.10834L40.506275 362.2021Q39.693775 362.29584 39.287525 362.81146Q38.86565 363.31146 38.86565 364.29584Q38.86565 365.3271 39.24065 365.79584Q39.61565 366.2646 40.1469 366.2646Q40.61565 366.2646 40.912525 365.93646Q41.2094 365.60834 41.5219 364.23334Q41.8344 362.8427 42.068775 362.3271Q42.42815 361.5771 42.9594 361.2177Q43.475025 360.85834 44.17815 360.85834Q44.86565 360.85834 45.475025 361.24896Q46.068775 361.6396 46.412525 362.37396Q46.74065 363.10834 46.74065 364.0302Q46.74065 365.2021 46.412525 365.99896Q46.068775 366.7802 45.381275 367.23334Q44.693775 367.67084 43.8344 367.68646ZM49.131275 358.74896L49.131275 359.49896Q46.318775 357.74896 43.49065 357.74896Q42.3969 357.74896 41.30315 357.99896Q40.42815 358.2021 39.61565 358.56146Q39.100025 358.79584 37.86565 359.49896L37.86565 358.74896Q39.3344 357.6552 40.818775 357.12396Q42.100025 356.67084 43.49065 356.67084Q45.068775 356.67084 46.55315 357.2802Q48.0219 357.8896 49.131275 358.74896Z" fill-rule="nonzero"/><path fill="#000000" d="M89.1 624.16565Q89.1 622.6344 89.4125 621.7125Q89.725 620.775 90.33437 620.275Q90.95937 619.775 91.89687 619.775Q92.58437 619.775 93.1 620.0563Q93.63125 620.3375 93.975 620.8688Q94.31875 621.3844 94.50625 622.1344Q94.69375 622.8844 94.69375 624.16565Q94.69375 625.6813 94.38125 626.60315Q94.08437 627.525 93.45937 628.04065Q92.85 628.54065 91.89687 628.54065Q90.6625 628.54065 89.94375 627.65Q89.1 626.5875 89.1 624.16565ZM90.17812 624.16565Q90.17812 626.275 90.67812 626.97815Q91.17812 627.6813 91.89687 627.6813Q92.63125 627.6813 93.11562 626.97815Q93.61562 626.275 93.61562 624.16565Q93.61562 622.04065 93.11562 621.35315Q92.63125 620.65 91.88125 620.65Q91.1625 620.65 90.725 621.2594Q90.17812 622.04065 90.17812 624.16565Z" fill-rule="nonzero"/><path fill="#000000" d="M80.64687 528.11774L80.64687 529.13336L74.95937 529.13336Q74.95937 528.75836 75.08437 528.399Q75.30312 527.82086 75.77187 527.25836Q76.25625 526.69586 77.1625 525.9615Q78.56875 524.80524 79.05312 524.13336Q79.55312 523.4615 79.55312 522.86774Q79.55312 522.24274 79.1 521.82086Q78.64687 521.38336 77.92812 521.38336Q77.1625 521.38336 76.70937 521.8365Q76.25625 522.2896 76.24062 523.1021L75.1625 522.99274Q75.27187 521.774 75.99062 521.149Q76.725 520.50836 77.95937 520.50836Q79.19375 520.50836 79.9125 521.19586Q80.63125 521.88336 80.63125 522.899Q80.63125 523.4146 80.4125 523.9146Q80.20937 524.399 79.70937 524.9615Q79.225 525.50836 78.1 526.4615Q77.14687 527.25836 76.86562 527.55524Q76.6 527.8365 76.42812 528.11774L80.64687 528.11774ZM82.1 526.88336L83.20937 526.7896Q83.33437 527.6021 83.77187 528.00836Q84.225 528.4146 84.86562 528.4146Q85.61562 528.4146 86.14687 527.8365Q86.67812 527.25836 86.67812 526.32086Q86.67812 525.4146 86.1625 524.899Q85.6625 524.36774 84.83437 524.36774Q84.33437 524.36774 83.9125 524.6021Q83.50625 524.8365 83.27187 525.19586L82.2875 525.07086L83.11562 520.6646L87.39687 520.6646L87.39687 521.6646L83.95937 521.6646L83.50625 523.9771Q84.27187 523.43024 85.11562 523.43024Q86.24062 523.43024 87.00625 524.2115Q87.7875 524.99274 87.7875 526.2271Q87.7875 527.38336 87.11562 528.24274Q86.2875 529.274 84.86562 529.274Q83.69375 529.274 82.94375 528.61774Q82.20937 527.9615 82.1 526.88336ZM89.1 524.899Q89.1 523.36774 89.4125 522.44586Q89.725 521.50836 90.33437 521.00836Q90.95937 520.50836 91.89687 520.50836Q92.58437 520.50836 93.1 520.7896Q93.63125 521.07086 93.975 521.6021Q94.31875 522.11774 94.50625 522.86774Q94.69375 523.61774 94.69375 524.899Q94.69375 526.4146 94.38125 527.3365Q94.08437 528.25836 93.45937 528.774Q92.85 529.274 91.89687 529.274Q90.6625 529.274 89.94375 528.38336Q89.1 527.32086 89.1 524.899ZM90.17812 524.899Q90.17812 527.00836 90.67812 527.7115Q91.17812 528.4146 91.89687 528.4146Q92.63125 528.4146 93.11562 527.7115Q93.61562 527.00836 93.61562 524.899Q93.61562 522.774 93.11562 522.0865Q92.63125 521.38336 91.88125 521.38336Q91.1625 521.38336 90.725 521.99274Q90.17812 522.774 90.17812 524.899Z" fill-rule="nonzero"/><path fill="#000000" d="M75.1 427.61667L76.20937 427.52292Q76.33437 428.33542 76.77187 428.74167Q77.225 429.14792 77.86562 429.14792Q78.61562 429.14792 79.14687 428.5698Q79.67812 427.99167 79.67812 427.05417Q79.67812 426.14792 79.1625 425.6323Q78.6625 425.10104 77.83437 425.10104Q77.33437 425.10104 76.9125 425.33542Q76.50625 425.5698 76.27187 425.92917L75.2875 425.80417L76.11562 421.39792L80.39687 421.39792L80.39687 422.39792L76.95937 422.39792L76.50625 424.71042Q77.27187 424.16354 78.11562 424.16354Q79.24062 424.16354 80.00625 424.9448Q80.7875 425.72604 80.7875 426.96042Q80.7875 428.11667 80.11562 428.97604Q79.2875 430.0073 77.86562 430.0073Q76.69375 430.0073 75.94375 429.35104Q75.20937 428.6948 75.1 427.61667ZM82.1 425.6323Q82.1 424.10104 82.4125 423.17917Q82.725 422.24167 83.33437 421.74167Q83.95937 421.24167 84.89687 421.24167Q85.58437 421.24167 86.1 421.52292Q86.63125 421.80417 86.975 422.33542Q87.31875 422.85104 87.50625 423.60104Q87.69375 424.35104 87.69375 425.6323Q87.69375 427.14792 87.38125 428.0698Q87.08437 428.99167 86.45937 429.5073Q85.85 430.0073 84.89687 430.0073Q83.6625 430.0073 82.94375 429.11667Q82.1 428.05417 82.1 425.6323ZM83.17812 425.6323Q83.17812 427.74167 83.67812 428.4448Q84.17812 429.14792 84.89687 429.14792Q85.63125 429.14792 86.11562 428.4448Q86.61562 427.74167 86.61562 425.6323Q86.61562 423.5073 86.11562 422.8198Q85.63125 422.11667 84.88125 422.11667Q84.1625 422.11667 83.725 422.72604Q83.17812 423.5073 83.17812 425.6323ZM89.1 425.6323Q89.1 424.10104 89.4125 423.17917Q89.725 422.24167 90.33437 421.74167Q90.95937 421.24167 91.89687 421.24167Q92.58437 421.24167 93.1 421.52292Q93.63125 421.80417 93.975 422.33542Q94.31875 422.85104 94.50625 423.60104Q94.69375 424.35104 94.69375 425.6323Q94.69375 427.14792 94.38125 428.0698Q94.08437 428.99167 93.45937 429.5073Q92.85 430.0073 91.89687 430.0073Q90.6625 430.0073 89.94375 429.11667Q89.1 428.05417 89.1 425.6323ZM90.17812 425.6323Q90.17812 427.74167 90.67812 428.4448Q91.17812 429.14792 91.89687 429.14792Q92.63125 429.14792 93.11562 428.4448Q93.61562 427.74167 93.61562 425.6323Q93.61562 423.5073 93.11562 422.8198Q92.63125 422.11667 91.88125 422.11667Q91.1625 422.11667 90.725 422.72604Q90.17812 423.5073 90.17812 425.6323Z" fill-rule="nonzero"/><path fill="#000000" d="M75.1625 323.13126L75.1625 322.11563L80.725 322.11563L80.725 322.94376Q79.9125 323.81876 79.1 325.27188Q78.30312 326.70938 77.86562 328.24063Q77.5375 329.31876 77.45937 330.6L76.36562 330.6Q76.38125 329.58438 76.75625 328.14688Q77.14687 326.70938 77.85 325.38126Q78.56875 324.05313 79.38125 323.13126L75.1625 323.13126ZM82.1 328.35L83.20937 328.25626Q83.33437 329.06876 83.77187 329.475Q84.225 329.88126 84.86562 329.88126Q85.61562 329.88126 86.14687 329.30313Q86.67812 328.725 86.67812 327.7875Q86.67812 326.88126 86.1625 326.36563Q85.6625 325.83438 84.83437 325.83438Q84.33437 325.83438 83.9125 326.06876Q83.50625 326.30313 83.27187 326.6625L82.2875 326.5375L83.11562 322.13126L87.39687 322.13126L87.39687 323.13126L83.95937 323.13126L83.50625 325.44376Q84.27187 324.89688 85.11562 324.89688Q86.24062 324.89688 87.00625 325.67813Q87.7875 326.45938 87.7875 327.69376Q87.7875 328.85 87.11562 329.70938Q86.2875 330.74063 84.86562 330.74063Q83.69375 330.74063 82.94375 330.08438Q82.20937 329.42813 82.1 328.35ZM89.1 326.36563Q89.1 324.83438 89.4125 323.9125Q89.725 322.975 90.33437 322.475Q90.95937 321.975 91.89687 321.975Q92.58437 321.975 93.1 322.25626Q93.63125 322.5375 93.975 323.06876Q94.31875 323.58438 94.50625 324.33438Q94.69375 325.08438 94.69375 326.36563Q94.69375 327.88126 94.38125 328.80313Q94.08437 329.725 93.45937 330.24063Q92.85 330.74063 91.89687 330.74063Q90.6625 330.74063 89.94375 329.85Q89.1 328.7875 89.1 326.36563ZM90.17812 326.36563Q90.17812 328.475 90.67812 329.17813Q91.17812 329.88126 91.89687 329.88126Q92.63125 329.88126 93.11562 329.17813Q93.61562 328.475 93.61562 326.36563Q93.61562 324.24063 93.11562 323.55313Q92.63125 322.85 91.88125 322.85Q91.1625 322.85 90.725 323.45938Q90.17812 324.24063 90.17812 326.36563Z" fill-rule="nonzero"/><path fill="#000000" d="M72.06875 231.33333L71.02187 231.33333L71.02187 224.61458Q70.63125 224.97395 70.00625 225.34895Q69.39687 225.70833 68.9125 225.8802L68.9125 224.86458Q69.7875 224.4427 70.44375 223.86458Q71.11562 223.27083 71.39687 222.70833L72.06875 222.70833L72.06875 231.33333ZM75.1 227.09895Q75.1 225.5677 75.4125 224.64583Q75.725 223.70833 76.33437 223.20833Q76.95937 222.70833 77.89687 222.70833Q78.58437 222.70833 79.1 222.98958Q79.63125 223.27083 79.975 223.80208Q80.31875 224.3177 80.50625 225.0677Q80.69375 225.8177 80.69375 227.09895Q80.69375 228.61458 80.38125 229.53645Q80.08437 230.45833 79.45937 230.97395Q78.85 231.47395 77.89687 231.47395Q76.6625 231.47395 75.94375 230.58333Q75.1 229.52083 75.1 227.09895ZM76.17812 227.09895Q76.17812 229.20833 76.67812 229.91145Q77.17812 230.61458 77.89687 230.61458Q78.63125 230.61458 79.11562 229.91145Q79.61562 229.20833 79.61562 227.09895Q79.61562 224.97395 79.11562 224.28645Q78.63125 223.58333 77.88125 223.58333Q77.1625 223.58333 76.725 224.1927Q76.17812 224.97395 76.17812 227.09895ZM82.1 227.09895Q82.1 225.5677 82.4125 224.64583Q82.725 223.70833 83.33437 223.20833Q83.95937 222.70833 84.89687 222.70833Q85.58437 222.70833 86.1 222.98958Q86.63125 223.27083 86.975 223.80208Q87.31875 224.3177 87.50625 225.0677Q87.69375 225.8177 87.69375 227.09895Q87.69375 228.61458 87.38125 229.53645Q87.08437 230.45833 86.45937 230.97395Q85.85 231.47395 84.89687 231.47395Q83.6625 231.47395 82.94375 230.58333Q82.1 229.52083 82.1 227.09895ZM83.17812 227.09895Q83.17812 229.20833 83.67812 229.91145Q84.17812 230.61458 84.89687 230.61458Q85.63125 230.61458 86.11562 229.91145Q86.61562 229.20833 86.61562 227.09895Q86.61562 224.97395 86.11562 224.28645Q85.63125 223.58333 84.88125 223.58333Q84.1625 223.58333 83.725 224.1927Q83.17812 224.97395 83.17812 227.09895ZM89.1 227.09895Q89.1 225.5677 89.4125 224.64583Q89.725 223.70833 90.33437 223.20833Q90.95937 222.70833 91.89687 222.70833Q92.58437 222.70833 93.1 222.98958Q93.63125 223.27083 93.975 223.80208Q94.31875 224.3177 94.50625 225.0677Q94.69375 225.8177 94.69375 227.09895Q94.69375 228.61458 94.38125 229.53645Q94.08437 230.45833 93.45937 230.97395Q92.85 231.47395 91.89687 231.47395Q90.6625 231.47395 89.94375 230.58333Q89.1 229.52083 89.1 227.09895ZM90.17812 227.09895Q90.17812 229.20833 90.67812 229.91145Q91.17812 230.61458 91.89687 230.61458Q92.63125 230.61458 93.11562 229.91145Q93.61562 229.20833 93.61562 227.09895Q93.61562 224.97395 93.11562 224.28645Q92.63125 223.58333 91.88125 223.58333Q91.1625 223.58333 90.725 224.1927Q90.17812 224.97395 90.17812 227.09895Z" fill-rule="nonzero"/><path fill="#000000" d="M72.06875 132.06667L71.02187 132.06667L71.02187 125.347916Q70.63125 125.70729 70.00625 126.08229Q69.39687 126.441666 68.9125 126.61354L68.9125 125.597916Q69.7875 125.17604 70.44375 124.597916Q71.11562 124.004166 71.39687 123.441666L72.06875 123.441666L72.06875 132.06667ZM80.64687 131.05104L80.64687 132.06667L74.95937 132.06667Q74.95937 131.69167 75.08437 131.33229Q75.30312 130.75417 75.77187 130.19167Q76.25625 129.62917 77.1625 128.89479Q78.56875 127.73854 79.05312 127.066666Q79.55312 126.39479 79.55312 125.80104Q79.55312 125.17604 79.1 124.754166Q78.64687 124.316666 77.92812 124.316666Q77.1625 124.316666 76.70937 124.76979Q76.25625 125.222916 76.24062 126.035416L75.1625 125.92604Q75.27187 124.70729 75.99062 124.08229Q76.725 123.441666 77.95937 123.441666Q79.19375 123.441666 79.9125 124.129166Q80.63125 124.816666 80.63125 125.83229Q80.63125 126.347916 80.4125 126.847916Q80.20937 127.33229 79.70937 127.89479Q79.225 128.44167 78.1 129.39479Q77.14687 130.19167 76.86562 130.48854Q76.6 130.76979 76.42812 131.05104L80.64687 131.05104ZM82.1 129.81667L83.20937 129.72292Q83.33437 130.53542 83.77187 130.94167Q84.225 131.34792 84.86562 131.34792Q85.61562 131.34792 86.14687 130.76979Q86.67812 130.19167 86.67812 129.25417Q86.67812 128.34792 86.1625 127.83229Q85.6625 127.30104 84.83437 127.30104Q84.33437 127.30104 83.9125 127.535416Q83.50625 127.76979 83.27187 128.12917L82.2875 128.00417L83.11562 123.597916L87.39687 123.597916L87.39687 124.597916L83.95937 124.597916L83.50625 126.910416Q84.27187 126.36354 85.11562 126.36354Q86.24062 126.36354 87.00625 127.14479Q87.7875 127.92604 87.7875 129.16042Q87.7875 130.31667 87.11562 131.17604Q86.2875 132.20729 84.86562 132.20729Q83.69375 132.20729 82.94375 131.55104Q82.20937 130.89479 82.1 129.81667ZM89.1 127.83229Q89.1 126.30104 89.4125 125.379166Q89.725 124.441666 90.33437 123.941666Q90.95937 123.441666 91.89687 123.441666Q92.58437 123.441666 93.1 123.722916Q93.63125 124.004166 93.975 124.535416Q94.31875 125.05104 94.50625 125.80104Q94.69375 126.55104 94.69375 127.83229Q94.69375 129.34792 94.38125 130.26979Q94.08437 131.19167 93.45937 131.70729Q92.85 132.20729 91.89687 132.20729Q90.6625 132.20729 89.94375 131.31667Q89.1 130.25417 89.1 127.83229ZM90.17812 127.83229Q90.17812 129.94167 90.67812 130.64479Q91.17812 131.34792 91.89687 131.34792Q92.63125 131.34792 93.11562 130.64479Q93.61562 129.94167 93.61562 127.83229Q93.61562 125.70729 93.11562 125.01979Q92.63125 124.316666 91.88125 124.316666Q91.1625 124.316666 90.725 124.92604Q90.17812 125.70729 90.17812 127.83229Z" fill-rule="nonzero"/><path fill="#000000" d="M200.74875 641.4L199.70187 641.4L199.70187 634.6813Q199.31125 635.04065 198.68625 635.41565Q198.07687 635.775 197.5925 635.9469L197.5925 634.9313Q198.4675 634.5094 199.12375 633.9313Q199.79562 633.3375 200.07687 632.775L200.74875 632.775L200.74875 641.4ZM203.78 637.16565Q203.78 635.6344 204.0925 634.7125Q204.405 633.775 205.01437 633.275Q205.63937 632.775 206.57687 632.775Q207.26437 632.775 207.78 633.0563Q208.31125 633.3375 208.655 633.8688Q208.99875 634.3844 209.18625 635.1344Q209.37375 635.8844 209.37375 637.16565Q209.37375 638.6813 209.06125 639.60315Q208.76437 640.525 208.13937 641.04065Q207.53 641.54065 206.57687 641.54065Q205.3425 641.54065 204.62375 640.65Q203.78 639.5875 203.78 637.16565ZM204.85812 637.16565Q204.85812 639.275 205.35812 639.97815Q205.85812 640.6813 206.57687 640.6813Q207.31125 640.6813 207.79562 639.97815Q208.29562 639.275 208.29562 637.16565Q208.29562 635.04065 207.79562 634.35315Q207.31125 633.65 206.56125 633.65Q205.8425 633.65 205.405 634.2594Q204.85812 635.04065 204.85812 637.16565Z" fill-rule="nonzero"/><path fill="#000000" d="M371.79355 640.3844L371.79355 641.4L366.10605 641.4Q366.10605 641.025 366.23105 640.66565Q366.4498 640.0875 366.91855 639.525Q367.40292 638.9625 368.30917 638.22815Q369.71542 637.0719 370.1998 636.4Q370.6998 635.72815 370.6998 635.1344Q370.6998 634.5094 370.24667 634.0875Q369.79355 633.65 369.0748 633.65Q368.30917 633.65 367.85605 634.10315Q367.40292 634.5563 367.3873 635.3688L366.30917 635.2594Q366.41855 634.04065 367.1373 633.41565Q367.87167 632.775 369.10605 632.775Q370.34042 632.775 371.05917 633.4625Q371.77792 634.15 371.77792 635.16565Q371.77792 635.6813 371.55917 636.1813Q371.35605 636.66565 370.85605 637.22815Q370.37167 637.775 369.24667 638.72815Q368.29355 639.525 368.0123 639.8219Q367.74667 640.10315 367.5748 640.3844L371.79355 640.3844ZM373.24667 637.16565Q373.24667 635.6344 373.55917 634.7125Q373.87167 633.775 374.48105 633.275Q375.10605 632.775 376.04355 632.775Q376.73105 632.775 377.24667 633.0563Q377.77792 633.3375 378.12167 633.8688Q378.46542 634.3844 378.65292 635.1344Q378.84042 635.8844 378.84042 637.16565Q378.84042 638.6813 378.52792 639.60315Q378.23105 640.525 377.60605 641.04065Q376.99667 641.54065 376.04355 641.54065Q374.80917 641.54065 374.09042 640.65Q373.24667 639.5875 373.24667 637.16565ZM374.3248 637.16565Q374.3248 639.275 374.8248 639.97815Q375.3248 640.6813 376.04355 640.6813Q376.77792 640.6813 377.2623 639.97815Q377.7623 639.275 377.7623 637.16565Q377.7623 635.04065 377.2623 634.35315Q376.77792 633.65 376.02792 633.65Q375.30917 633.65 374.87167 634.2594Q374.3248 635.04065 374.3248 637.16565Z" fill-rule="nonzero"/><path fill="#000000" d="M535.7133 639.1344L536.7758 638.9938Q536.9477 639.8844 537.3852 640.29065Q537.8227 640.6813 538.4477 640.6813Q539.1977 640.6813 539.7133 640.16565Q540.22894 639.65 540.22894 638.8844Q540.22894 638.16565 539.74457 637.6969Q539.2758 637.2125 538.54144 637.2125Q538.24457 637.2125 537.79144 637.3375L537.91644 636.4Q538.0258 636.41565 538.0883 636.41565Q538.7602 636.41565 539.29144 636.0719Q539.8383 635.7125 539.8383 634.97815Q539.8383 634.4 539.4477 634.025Q539.05707 633.6344 538.43207 633.6344Q537.8227 633.6344 537.4008 634.025Q536.99457 634.41565 536.8852 635.1813L535.8227 634.9938Q536.0102 633.9469 536.6977 633.3688Q537.3852 632.775 538.4008 632.775Q539.10394 632.775 539.6977 633.0875Q540.29144 633.3844 540.60394 633.9Q540.91644 634.41565 540.91644 635.0094Q540.91644 635.5563 540.61957 636.025Q540.3227 636.47815 539.74457 636.7438Q540.49457 636.91565 540.91644 637.47815Q541.3383 638.025 541.3383 638.8688Q541.3383 639.9938 540.5102 640.775Q539.6977 641.5563 538.4477 641.5563Q537.3227 641.5563 536.5727 640.8844Q535.8227 640.1969 535.7133 639.1344ZM542.7133 637.16565Q542.7133 635.6344 543.0258 634.7125Q543.3383 633.775 543.9477 633.275Q544.5727 632.775 545.5102 632.775Q546.1977 632.775 546.7133 633.0563Q547.24457 633.3375 547.5883 633.8688Q547.93207 634.3844 548.11957 635.1344Q548.30707 635.8844 548.30707 637.16565Q548.30707 638.6813 547.99457 639.60315Q547.6977 640.525 547.0727 641.04065Q546.4633 641.54065 545.5102 641.54065Q544.2758 641.54065 543.55707 640.65Q542.7133 639.5875 542.7133 637.16565ZM543.79144 637.16565Q543.79144 639.275 544.29144 639.97815Q544.79144 640.6813 545.5102 640.6813Q546.24457 640.6813 546.72894 639.97815Q547.22894 639.275 547.22894 637.16565Q547.22894 635.04065 546.72894 634.35315Q546.24457 633.65 545.49457 633.65Q544.7758 633.65 544.3383 634.2594Q543.79144 635.04065 543.79144 637.16565Z" fill-rule="nonzero"/><path fill="#000000" d="M708.555 641.4L708.555 639.3375L704.83624 639.3375L704.83624 638.3688L708.7581 632.8063L709.6175 632.8063L709.6175 638.3688L710.77374 638.3688L710.77374 639.3375L709.6175 639.3375L709.6175 641.4L708.555 641.4ZM708.555 638.3688L708.555 634.5094L705.8675 638.3688L708.555 638.3688ZM712.18 637.16565Q712.18 635.6344 712.4925 634.7125Q712.805 633.775 713.41437 633.275Q714.03937 632.775 714.97687 632.775Q715.66437 632.775 716.18 633.0563Q716.71124 633.3375 717.055 633.8688Q717.39874 634.3844 717.58624 635.1344Q717.77374 635.8844 717.77374 637.16565Q717.77374 638.6813 717.46124 639.60315Q717.16437 640.525 716.53937 641.04065Q715.93 641.54065 714.97687 641.54065Q713.7425 641.54065 713.02374 640.65Q712.18 639.5875 712.18 637.16565ZM713.2581 637.16565Q713.2581 639.275 713.7581 639.97815Q714.2581 640.6813 714.97687 640.6813Q715.71124 640.6813 716.1956 639.97815Q716.6956 639.275 716.6956 637.16565Q716.6956 635.04065 716.1956 634.35315Q715.71124 633.65 714.96124 633.65Q714.2425 633.65 713.805 634.2594Q713.2581 635.04065 713.2581 637.16565Z" fill-rule="nonzero"/><path fill="#000000" d="M874.64667 639.15L875.75604 639.0563Q875.88104 639.8688 876.31854 640.275Q876.77167 640.6813 877.4123 640.6813Q878.1623 640.6813 878.69354 640.10315Q879.2248 639.525 879.2248 638.5875Q879.2248 637.6813 878.70917 637.16565Q878.20917 636.6344 877.38104 636.6344Q876.88104 636.6344 876.45917 636.8688Q876.0529 637.10315 875.81854 637.4625L874.83417 637.3375L875.6623 632.9313L879.94354 632.9313L879.94354 633.9313L876.50604 633.9313L876.0529 636.2438Q876.81854 635.6969 877.6623 635.6969Q878.7873 635.6969 879.5529 636.47815Q880.33417 637.2594 880.33417 638.4938Q880.33417 639.65 879.6623 640.5094Q878.83417 641.54065 877.4123 641.54065Q876.2404 641.54065 875.4904 640.8844Q874.75604 640.22815 874.64667 639.15ZM881.64667 637.16565Q881.64667 635.6344 881.95917 634.7125Q882.27167 633.775 882.88104 633.275Q883.50604 632.775 884.44354 632.775Q885.13104 632.775 885.64667 633.0563Q886.1779 633.3375 886.52167 633.8688Q886.8654 634.3844 887.0529 635.1344Q887.2404 635.8844 887.2404 637.16565Q887.2404 638.6813 886.9279 639.60315Q886.63104 640.525 886.00604 641.04065Q885.39667 641.54065 884.44354 641.54065Q883.20917 641.54065 882.4904 640.65Q881.64667 639.5875 881.64667 637.16565ZM882.7248 637.16565Q882.7248 639.275 883.2248 639.97815Q883.7248 640.6813 884.44354 640.6813Q885.1779 640.6813 885.6623 639.97815Q886.1623 639.275 886.1623 637.16565Q886.1623 635.04065 885.6623 634.35315Q885.1779 633.65 884.4279 633.65Q883.70917 633.65 883.27167 634.2594Q882.7248 635.04065 882.7248 637.16565Z" fill-rule="nonzero"/><path fill="#000000" d="M1049.582 634.91565L1048.5352 634.9938Q1048.3945 634.3688 1048.1445 634.0875Q1047.707 633.6344 1047.082 633.6344Q1046.582 633.6344 1046.1914 633.91565Q1045.707 634.29065 1045.4102 634.9938Q1045.1289 635.6813 1045.1133 636.9625Q1045.4883 636.3844 1046.0352 636.10315Q1046.5977 635.8219 1047.207 635.8219Q1048.2539 635.8219 1048.9883 636.60315Q1049.7383 637.3844 1049.7383 638.60315Q1049.7383 639.41565 1049.3789 640.1188Q1049.0352 640.8063 1048.4258 641.1813Q1047.8164 641.54065 1047.0508 641.54065Q1045.7227 641.54065 1044.8945 640.5719Q1044.0664 639.60315 1044.0664 637.3844Q1044.0664 634.8844 1044.9883 633.7594Q1045.7852 632.775 1047.1445 632.775Q1048.1602 632.775 1048.8008 633.35315Q1049.457 633.91565 1049.582 634.91565ZM1045.2852 638.6188Q1045.2852 639.16565 1045.5039 639.66565Q1045.7383 640.15 1046.1445 640.41565Q1046.5664 640.6813 1047.0352 640.6813Q1047.6914 640.6813 1048.1758 640.15Q1048.6602 639.60315 1048.6602 638.6813Q1048.6602 637.79065 1048.1758 637.275Q1047.707 636.7594 1046.9883 636.7594Q1046.2695 636.7594 1045.7695 637.275Q1045.2852 637.79065 1045.2852 638.6188ZM1051.1133 637.16565Q1051.1133 635.6344 1051.4258 634.7125Q1051.7383 633.775 1052.3477 633.275Q1052.9727 632.775 1053.9102 632.775Q1054.5977 632.775 1055.1133 633.0563Q1055.6445 633.3375 1055.9883 633.8688Q1056.332 634.3844 1056.5195 635.1344Q1056.707 635.8844 1056.707 637.16565Q1056.707 638.6813 1056.3945 639.60315Q1056.0977 640.525 1055.4727 641.04065Q1054.8633 641.54065 1053.9102 641.54065Q1052.6758 641.54065 1051.957 640.65Q1051.1133 639.5875 1051.1133 637.16565ZM1052.1914 637.16565Q1052.1914 639.275 1052.6914 639.97815Q1053.1914 640.6813 1053.9102 640.6813Q1054.6445 640.6813 1055.1289 639.97815Q1055.6289 639.275 1055.6289 637.16565Q1055.6289 635.04065 1055.1289 634.35315Q1054.6445 633.65 1053.8945 633.65Q1053.1758 633.65 1052.7383 634.2594Q1052.1914 635.04065 1052.1914 637.16565Z" fill-rule="nonzero"/><path stroke="#4285f4" stroke-width="4.0" stroke-linecap="butt" d="M487.0 90.333336L499.0 90.333336" fill-rule="nonzero"/><path fill="#1a1a1a" d="M513.5625 85.739586L514.7031 85.739586L514.7031 90.708336Q514.7031 92.00521 514.40625 92.770836Q514.1094 93.520836 513.34375 94.00521Q512.5781 94.47396 511.34375 94.47396Q510.14062 94.47396 509.35938 94.06771Q508.59375 93.645836 508.26562 92.864586Q507.9375 92.06771 507.9375 90.708336L507.9375 85.739586L509.07812 85.739586L509.07812 90.69271Q509.07812 91.81771 509.28125 92.34896Q509.5 92.88021 510.0 93.177086Q510.51562 93.458336 511.25 93.458336Q512.5 93.458336 513.03125 92.895836Q513.5625 92.31771 513.5625 90.69271L513.5625 85.739586ZM516.7969 94.333336L516.7969 88.114586L517.7344 88.114586L517.7344 88.989586Q518.4219 87.97396 519.71875 87.97396Q520.28125 87.97396 520.75 88.177086Q521.2344 88.38021 521.46875 88.708336Q521.7031 89.03646 521.7969 89.47396Q521.84375 89.770836 521.84375 90.50521L521.84375 94.333336L520.7969 94.333336L520.7969 90.552086Q520.7969 89.895836 520.6719 89.583336Q520.5469 89.270836 520.2344 89.083336Q519.9219 88.88021 519.5 88.88021Q518.8281 88.88021 518.3281 89.31771Q517.84375 89.739586 517.84375 90.927086L517.84375 94.333336L516.7969 94.333336ZM523.40625 91.22396Q523.40625 89.489586 524.3594 88.66146Q525.15625 87.97396 526.3125 87.97396Q527.59375 87.97396 528.40625 88.81771Q529.2344 89.645836 529.2344 91.13021Q529.2344 92.333336 528.875 93.020836Q528.5156 93.708336 527.8125 94.09896Q527.125 94.47396 526.3125 94.47396Q525.0156 94.47396 524.2031 93.645836Q523.40625 92.802086 523.40625 91.22396ZM524.4844 91.22396Q524.4844 92.41146 525.0 93.00521Q525.53125 93.59896 526.3125 93.59896Q527.1094 93.59896 527.625 93.00521Q528.1406 92.41146 528.1406 91.19271Q528.1406 90.03646 527.6094 89.44271Q527.09375 88.84896 526.3125 88.84896Q525.53125 88.84896 525.0 89.44271Q524.4844 90.020836 524.4844 91.22396ZM530.7969 96.72396L530.7969 88.114586L531.75 88.114586L531.75 88.91146Q532.09375 88.44271 532.5156 88.208336Q532.9531 87.97396 533.5625 87.97396Q534.3594 87.97396 534.96875 88.38021Q535.5781 88.78646 535.875 89.53646Q536.1875 90.28646 536.1875 91.177086Q536.1875 92.13021 535.84375 92.895836Q535.5156 93.66146 534.8594 94.06771Q534.2031 94.47396 533.4844 94.47396Q532.9531 94.47396 532.53125 94.25521Q532.1094 94.020836 531.84375 93.69271L531.84375 96.72396L530.7969 96.72396ZM531.75 91.25521Q531.75 92.458336 532.2344 93.03646Q532.71875 93.59896 533.40625 93.59896Q534.1094 93.59896 534.6094 93.00521Q535.1094 92.41146 535.1094 91.16146Q535.1094 89.97396 534.625 89.395836Q534.1406 88.802086 533.4531 88.802086Q532.78125 88.802086 532.2656 89.427086Q531.75 90.052086 531.75 91.25521ZM540.09375 93.395836L540.25 94.31771Q539.7969 94.41146 539.4531 94.41146Q538.875 94.41146 538.5625 94.239586Q538.25 94.052086 538.1094 93.75521Q537.9844 93.458336 537.9844 92.50521L537.9844 88.927086L537.21875 88.927086L537.21875 88.114586L537.9844 88.114586L537.9844 86.56771L539.03125 85.94271L539.03125 88.114586L540.09375 88.114586L540.09375 88.927086L539.03125 88.927086L539.03125 92.56771Q539.03125 93.020836 539.0781 93.145836Q539.1406 93.270836 539.2656 93.34896Q539.3906 93.427086 539.625 93.427086Q539.8125 93.427086 540.09375 93.395836ZM540.7969 86.958336L540.7969 85.739586L541.8594 85.739586L541.8594 86.958336L540.7969 86.958336ZM540.7969 94.333336L540.7969 88.114586L541.8594 88.114586L541.8594 94.333336L540.7969 94.333336ZM543.7969 94.333336L543.7969 88.114586L544.7344 88.114586L544.7344 88.989586Q545.03125 88.520836 545.5156 88.25521Q546.0 87.97396 546.625 87.97396Q547.3125 87.97396 547.75 88.25521Q548.2031 88.53646 548.375 89.052086Q549.125 87.97396 550.2969 87.97396Q551.2344 87.97396 551.71875 88.489586Q552.21875 88.989586 552.21875 90.06771L552.21875 94.333336L551.1719 94.333336L551.1719 90.41146Q551.1719 89.78646 551.0625 89.50521Q550.96875 89.22396 550.7031 89.052086Q550.4375 88.88021 550.0625 88.88021Q549.40625 88.88021 548.96875 89.31771Q548.5469 89.75521 548.5469 90.72396L548.5469 94.333336L547.4844 94.333336L547.4844 90.28646Q547.4844 89.583336 547.21875 89.239586Q546.96875 88.88021 546.3906 88.88021Q545.9375 88.88021 545.5625 89.114586Q545.1875 89.34896 545.0156 89.802086Q544.84375 90.25521 544.84375 91.09896L544.84375 94.333336L543.7969 94.333336ZM553.7969 86.958336L553.7969 85.739586L554.8594 85.739586L554.8594 86.958336L553.7969 86.958336ZM553.7969 94.333336L553.7969 88.114586L554.8594 88.114586L554.8594 94.333336L553.7969 94.333336ZM556.2344 94.333336L556.2344 93.47396L560.2031 88.927086Q559.5156 88.958336 559.0 88.958336L556.46875 88.958336L556.46875 88.114586L561.5625 88.114586L561.5625 88.802086L558.1875 92.75521L557.53125 93.47396Q558.25 93.427086 558.8594 93.427086L561.75 93.427086L561.75 94.333336L556.2344 94.333336ZM567.0469 92.333336L568.1406 92.458336Q567.8906 93.41146 567.1875 93.94271Q566.4844 94.47396 565.40625 94.47396Q564.0469 94.47396 563.2344 93.63021Q562.4375 92.78646 562.4375 91.270836Q562.4375 89.708336 563.25 88.84896Q564.0625 87.97396 565.34375 87.97396Q566.59375 87.97396 567.375 88.81771Q568.1719 89.66146 568.1719 91.208336Q568.1719 91.302086 568.1719 91.489586L563.53125 91.489586Q563.59375 92.520836 564.1094 93.06771Q564.625 93.59896 565.40625 93.59896Q565.9844 93.59896 566.3906 93.302086Q566.8125 92.989586 567.0469 92.333336ZM563.59375 90.63021L567.0625 90.63021Q567.0 89.833336 566.6719 89.44271Q566.15625 88.833336 565.3594 88.833336Q564.625 88.833336 564.125 89.31771Q563.6406 89.802086 563.59375 90.63021ZM573.8281 94.333336L573.8281 93.552086Q573.2344 94.47396 572.09375 94.47396Q571.34375 94.47396 570.71875 94.06771Q570.09375 93.645836 569.75 92.91146Q569.40625 92.177086 569.40625 91.22396Q569.40625 90.302086 569.71875 89.53646Q570.03125 88.770836 570.65625 88.38021Q571.28125 87.97396 572.0469 87.97396Q572.6094 87.97396 573.0469 88.208336Q573.4844 88.44271 573.7656 88.81771L573.7656 85.739586L574.8125 85.739586L574.8125 94.333336L573.8281 94.333336ZM570.5 91.22396Q570.5 92.427086 571.0 93.020836Q571.5 93.59896 572.1875 93.59896Q572.875 93.59896 573.3594 93.03646Q573.84375 92.47396 573.84375 91.31771Q573.84375 90.03646 573.34375 89.44271Q572.8594 88.84896 572.1406 88.84896Q571.4375 88.84896 570.96875 89.427086Q570.5 89.989586 570.5 91.22396Z" fill-rule="nonzero"/><path stroke="#ea4335" stroke-width="4.0" stroke-linecap="butt" d="M592.0 90.333336L604.0 90.333336" fill-rule="nonzero"/><path fill="#1a1a1a" d="M612.5781 90.145836Q612.5781 88.00521 613.71875 86.802086Q614.875 85.583336 616.6875 85.583336Q617.8906 85.583336 618.84375 86.16146Q619.7969 86.72396 620.2969 87.739586Q620.7969 88.75521 620.7969 90.052086Q620.7969 91.34896 620.2656 92.38021Q619.7344 93.41146 618.7656 93.94271Q617.8125 94.47396 616.6875 94.47396Q615.46875 94.47396 614.5156 93.895836Q613.5625 93.302086 613.0625 92.302086Q612.5781 91.28646 612.5781 90.145836ZM613.75 90.16146Q613.75 91.72396 614.5781 92.614586Q615.4219 93.50521 616.6875 93.50521Q617.96875 93.50521 618.7969 92.614586Q619.625 91.708336 619.625 90.03646Q619.625 88.989586 619.2656 88.208336Q618.9219 87.427086 618.2344 87.00521Q617.5469 86.56771 616.7031 86.56771Q615.5 86.56771 614.625 87.395836Q613.75 88.22396 613.75 90.16146ZM621.7969 96.72396L621.7969 88.114586L622.75 88.114586L622.75 88.91146Q623.09375 88.44271 623.5156 88.208336Q623.9531 87.97396 624.5625 87.97396Q625.3594 87.97396 625.96875 88.38021Q626.5781 88.78646 626.875 89.53646Q627.1875 90.28646 627.1875 91.177086Q627.1875 92.13021 626.84375 92.895836Q626.5156 93.66146 625.8594 94.06771Q625.2031 94.47396 624.4844 94.47396Q623.9531 94.47396 623.53125 94.25521Q623.1094 94.020836 622.84375 93.69271L622.84375 96.72396L621.7969 96.72396ZM622.75 91.25521Q622.75 92.458336 623.2344 93.03646Q623.71875 93.59896 624.40625 93.59896Q625.1094 93.59896 625.6094 93.00521Q626.1094 92.41146 626.1094 91.16146Q626.1094 89.97396 625.625 89.395836Q625.1406 88.802086 624.4531 88.802086Q623.78125 88.802086 623.2656 89.427086Q622.75 90.052086 622.75 91.25521ZM631.09375 93.395836L631.25 94.31771Q630.7969 94.41146 630.4531 94.41146Q629.875 94.41146 629.5625 94.239586Q629.25 94.052086 629.1094 93.75521Q628.9844 93.458336 628.9844 92.50521L628.9844 88.927086L628.21875 88.927086L628.21875 88.114586L628.9844 88.114586L628.9844 86.56771L630.03125 85.94271L630.03125 88.114586L631.09375 88.114586L631.09375 88.927086L630.03125 88.927086L630.03125 92.56771Q630.03125 93.020836 630.0781 93.145836Q630.1406 93.270836 630.2656 93.34896Q630.3906 93.427086 630.625 93.427086Q630.8125 93.427086 631.09375 93.395836ZM631.7969 86.958336L631.7969 85.739586L632.8594 85.739586L632.8594 86.958336L631.7969 86.958336ZM631.7969 94.333336L631.7969 88.114586L632.8594 88.114586L632.8594 94.333336L631.7969 94.333336ZM634.7969 94.333336L634.7969 88.114586L635.7344 88.114586L635.7344 88.989586Q636.03125 88.520836 636.5156 88.25521Q637.0 87.97396 637.625 87.97396Q638.3125 87.97396 638.75 88.25521Q639.2031 88.53646 639.375 89.052086Q640.125 87.97396 641.2969 87.97396Q642.2344 87.97396 642.71875 88.489586Q643.21875 88.989586 643.21875 90.06771L643.21875 94.333336L642.1719 94.333336L642.1719 90.41146Q642.1719 89.78646 642.0625 89.50521Q641.96875 89.22396 641.7031 89.052086Q641.4375 88.88021 641.0625 88.88021Q640.40625 88.88021 639.96875 89.31771Q639.5469 89.75521 639.5469 90.72396L639.5469 94.333336L638.4844 94.333336L638.4844 90.28646Q638.4844 89.583336 638.21875 89.239586Q637.96875 88.88021 637.3906 88.88021Q636.9375 88.88021 636.5625 89.114586Q636.1875 89.34896 636.0156 89.802086Q635.84375 90.25521 635.84375 91.09896L635.84375 94.333336L634.7969 94.333336ZM644.7969 86.958336L644.7969 85.739586L645.8594 85.739586L645.8594 86.958336L644.7969 86.958336ZM644.7969 94.333336L644.7969 88.114586L645.8594 88.114586L645.8594 94.333336L644.7969 94.333336ZM647.2344 94.333336L647.2344 93.47396L651.2031 88.927086Q650.5156 88.958336 650.0 88.958336L647.46875 88.958336L647.46875 88.114586L652.5625 88.114586L652.5625 88.802086L649.1875 92.75521L648.53125 93.47396Q649.25 93.427086 649.8594 93.427086L652.75 93.427086L652.75 94.333336L647.2344 94.333336ZM658.0469 92.333336L659.1406 92.458336Q658.8906 93.41146 658.1875 93.94271Q657.4844 94.47396 656.40625 94.47396Q655.0469 94.47396 654.2344 93.63021Q653.4375 92.78646 653.4375 91.270836Q653.4375 89.708336 654.25 88.84896Q655.0625 87.97396 656.34375 87.97396Q657.59375 87.97396 658.375 88.81771Q659.1719 89.66146 659.1719 91.208336Q659.1719 91.302086 659.1719 91.489586L654.53125 91.489586Q654.59375 92.520836 655.1094 93.06771Q655.625 93.59896 656.40625 93.59896Q656.9844 93.59896 657.3906 93.302086Q657.8125 92.989586 658.0469 92.333336ZM654.59375 90.63021L658.0625 90.63021Q658.0 89.833336 657.6719 89.44271Q657.15625 88.833336 656.3594 88.833336Q655.625 88.833336 655.125 89.31771Q654.6406 89.802086 654.59375 90.63021ZM664.8281 94.333336L664.8281 93.552086Q664.2344 94.47396 663.09375 94.47396Q662.34375 94.47396 661.71875 94.06771Q661.09375 93.645836 660.75 92.91146Q660.40625 92.177086 660.40625 91.22396Q660.40625 90.302086 660.71875 89.53646Q661.03125 88.770836 661.65625 88.38021Q662.28125 87.97396 663.0469 87.97396Q663.6094 87.97396 664.0469 88.208336Q664.4844 88.44271 664.7656 88.81771L664.7656 85.739586L665.8125 85.739586L665.8125 94.333336L664.8281 94.333336ZM661.5 91.22396Q661.5 92.427086 662.0 93.020836Q662.5 93.59896 663.1875 93.59896Q663.875 93.59896 664.3594 93.03646Q664.84375 92.47396 664.84375 91.31771Q664.84375 90.03646 664.34375 89.44271Q663.8594 88.84896 663.1406 88.84896Q662.4375 88.84896 661.96875 89.427086Q661.5 89.989586 661.5 91.22396Z" fill-rule="nonzero"/><path fill="#757575" d="M462.75 48.990623L462.75 47.303123L468.8125 47.2875L468.8125 52.6Q467.40625 53.725 465.92188 54.2875Q464.4375 54.85 462.875 54.85Q460.76562 54.85 459.04688 53.94375Q457.32812 53.0375 456.4375 51.334373Q455.5625 49.615623 455.5625 47.50625Q455.5625 45.4125 456.4375 43.615623Q457.3125 41.803123 458.95312 40.928123Q460.59375 40.0375 462.73438 40.0375Q464.28125 40.0375 465.53125 40.5375Q466.79688 41.0375 467.5 41.94375Q468.21875 42.834373 468.59375 44.2875L466.89062 44.75625Q466.5625 43.6625 466.07812 43.0375Q465.60938 42.4125 464.71875 42.0375Q463.82812 41.6625 462.75 41.6625Q461.4375 41.6625 460.48438 42.053123Q459.54688 42.44375 458.96875 43.1Q458.39062 43.740623 458.0625 44.50625Q457.51562 45.834373 457.51562 47.396873Q457.51562 49.303123 458.17188 50.6Q458.84375 51.88125 460.09375 52.50625Q461.35938 53.13125 462.76562 53.13125Q464.0 53.13125 465.17188 52.6625Q466.34375 52.19375 466.95312 51.646873L466.95312 48.990623L462.75 48.990623ZM471.17188 49.4125Q471.17188 46.5375 472.76562 45.146873Q474.10938 43.990623 476.03125 43.990623Q478.17188 43.990623 479.51562 45.396873Q480.875 46.803123 480.875 49.271873Q480.875 51.271873 480.28125 52.428123Q479.6875 53.56875 478.53125 54.209373Q477.39062 54.834373 476.03125 54.834373Q473.84375 54.834373 472.5 53.44375Q471.17188 52.0375 471.17188 49.4125ZM472.96875 49.4125Q472.96875 51.4125 473.82812 52.396873Q474.70312 53.38125 476.03125 53.38125Q477.34375 53.38125 478.20312 52.396873Q479.07812 51.396873 479.07812 49.35Q479.07812 47.428123 478.20312 46.44375Q477.32812 45.44375 476.03125 45.44375Q474.70312 45.44375 473.82812 46.44375Q472.96875 47.428123 472.96875 49.4125ZM489.92188 51.25625L491.73438 51.490623Q491.3125 53.06875 490.14062 53.959373Q488.98438 54.834373 487.17188 54.834373Q484.90625 54.834373 483.5625 53.44375Q482.23438 52.0375 482.23438 49.50625Q482.23438 46.88125 483.57812 45.44375Q484.92188 43.990623 487.07812 43.990623Q489.15625 43.990623 490.46875 45.4125Q491.79688 46.81875 491.79688 49.396873Q491.79688 49.553123 491.78125 49.865623L484.04688 49.865623Q484.14062 51.56875 485.01562 52.475Q485.89062 53.38125 487.1875 53.38125Q488.15625 53.38125 488.82812 52.88125Q489.51562 52.365623 489.92188 51.25625ZM484.14062 48.4125L489.9375 48.4125Q489.82812 47.115623 489.28125 46.459373Q488.4375 45.44375 487.09375 45.44375Q485.89062 45.44375 485.0625 46.25625Q484.23438 47.053123 484.14062 48.4125ZM493.79688 54.6L493.79688 44.225L495.375 44.225L495.375 45.803123Q495.98438 44.69375 496.5 44.35Q497.01562 43.990623 497.625 43.990623Q498.51562 43.990623 499.4375 44.553123L498.82812 46.19375Q498.1875 45.803123 497.54688 45.803123Q496.96875 45.803123 496.5 46.1625Q496.04688 46.50625 495.84375 47.115623Q495.5625 48.053123 495.5625 49.1625L495.5625 54.6L493.79688 54.6ZM504.65625 53.021873L504.90625 54.584373Q504.17188 54.740623 503.57812 54.740623Q502.625 54.740623 502.09375 54.44375Q501.57812 54.13125 501.35938 53.646873Q501.14062 53.146873 501.14062 51.56875L501.14062 45.6L499.85938 45.6L499.85938 44.225L501.14062 44.225L501.14062 41.6625L502.89062 40.6L502.89062 44.225L504.65625 44.225L504.65625 45.6L502.89062 45.6L502.89062 51.6625Q502.89062 52.4125 502.98438 52.63125Q503.07812 52.834373 503.28125 52.975Q503.5 53.1 503.89062 53.1Q504.17188 53.1 504.65625 53.021873ZM505.89062 54.6L505.89062 53.178123L512.5 45.6Q511.375 45.646873 510.51562 45.646873L506.28125 45.646873L506.28125 44.225L514.7656 44.225L514.7656 45.396873L509.14062 51.975L508.0625 53.178123Q509.23438 53.084373 510.28125 53.084373L515.0781 53.084373L515.0781 54.6L505.89062 54.6ZM523.9219 51.25625L525.7344 51.490623Q525.3125 53.06875 524.1406 53.959373Q522.9844 54.834373 521.1719 54.834373Q518.90625 54.834373 517.5625 53.44375Q516.2344 52.0375 516.2344 49.50625Q516.2344 46.88125 517.5781 45.44375Q518.9219 43.990623 521.0781 43.990623Q523.15625 43.990623 524.46875 45.4125Q525.7969 46.81875 525.7969 49.396873Q525.7969 49.553123 525.78125 49.865623L518.0469 49.865623Q518.1406 51.56875 519.0156 52.475Q519.8906 53.38125 521.1875 53.38125Q522.15625 53.38125 522.8281 52.88125Q523.5156 52.365623 523.9219 51.25625ZM518.1406 48.4125L523.9375 48.4125Q523.8281 47.115623 523.28125 46.459373Q522.4375 45.44375 521.09375 45.44375Q519.8906 45.44375 519.0625 46.25625Q518.2344 47.053123 518.1406 48.4125ZM527.78125 54.6L527.78125 40.2875L529.53125 40.2875L529.53125 54.6L527.78125 54.6ZM548.2656 49.584373L550.15625 50.053123Q549.5625 52.396873 548.0156 53.63125Q546.46875 54.85 544.21875 54.85Q541.90625 54.85 540.4531 53.9125Q539.0156 52.959373 538.25 51.178123Q537.5 49.38125 537.5 47.334373Q537.5 45.1 538.34375 43.44375Q539.2031 41.771873 540.78125 40.9125Q542.3594 40.0375 544.25 40.0375Q546.40625 40.0375 547.8594 41.13125Q549.3281 42.225 549.90625 44.209373L548.0469 44.646873Q547.5469 43.084373 546.59375 42.38125Q545.65625 41.6625 544.21875 41.6625Q542.5625 41.6625 541.4531 42.459373Q540.34375 43.240623 539.8906 44.584373Q539.4531 45.9125 539.4531 47.31875Q539.4531 49.146873 539.9844 50.521873Q540.5156 51.88125 541.6406 52.553123Q542.7656 53.225 544.0625 53.225Q545.65625 53.225 546.7656 52.303123Q547.875 51.38125 548.2656 49.584373ZM551.1719 49.4125Q551.1719 46.5375 552.7656 45.146873Q554.1094 43.990623 556.03125 43.990623Q558.1719 43.990623 559.5156 45.396873Q560.875 46.803123 560.875 49.271873Q560.875 51.271873 560.28125 52.428123Q559.6875 53.56875 558.53125 54.209373Q557.3906 54.834373 556.03125 54.834373Q553.84375 54.834373 552.5 53.44375Q551.1719 52.0375 551.1719 49.4125ZM552.96875 49.4125Q552.96875 51.4125 553.8281 52.396873Q554.7031 53.38125 556.03125 53.38125Q557.34375 53.38125 558.2031 52.396873Q559.0781 51.396873 559.0781 49.35Q559.0781 47.428123 558.2031 46.44375Q557.3281 45.44375 556.03125 45.44375Q554.7031 45.44375 553.8281 46.44375Q552.96875 47.428123 552.96875 49.4125ZM562.8125 54.6L562.8125 44.225L564.3906 44.225L564.3906 45.678123Q564.875 44.928123 565.6875 44.459373Q566.5 43.990623 567.53125 43.990623Q568.6875 43.990623 569.4219 44.475Q570.15625 44.94375 570.46875 45.803123Q571.7031 43.990623 573.6719 43.990623Q575.21875 43.990623 576.0469 44.85Q576.875 45.709373 576.875 47.475L576.875 54.6L575.125 54.6L575.125 48.06875Q575.125 47.00625 574.9531 46.553123Q574.78125 46.084373 574.3281 45.803123Q573.8906 45.521873 573.28125 45.521873Q572.1875 45.521873 571.4531 46.25625Q570.7344 46.975 570.7344 48.56875L570.7344 54.6L568.9844 54.6L568.9844 47.865623Q568.9844 46.69375 568.5469 46.115623Q568.125 45.521873 567.1406 45.521873Q566.40625 45.521873 565.7656 45.9125Q565.1406 46.303123 564.8594 47.053123Q564.5781 47.803123 564.5781 49.225L564.5781 54.6L562.8125 54.6ZM579.8125 58.56875L579.8125 44.225L581.4219 44.225L581.4219 45.56875Q581.9844 44.7875 582.6875 44.396873Q583.40625 43.990623 584.4219 43.990623Q585.75 43.990623 586.7656 44.678123Q587.78125 45.365623 588.2969 46.615623Q588.8281 47.85 588.8281 49.334373Q588.8281 50.928123 588.25 52.209373Q587.6875 53.475 586.59375 54.1625Q585.5 54.834373 584.2969 54.834373Q583.4219 54.834373 582.71875 54.459373Q582.03125 54.084373 581.5781 53.521873L581.5781 58.56875L579.8125 58.56875ZM581.40625 49.475Q581.40625 51.475 582.21875 52.428123Q583.03125 53.38125 584.1875 53.38125Q585.3594 53.38125 586.1875 52.396873Q587.03125 51.4125 587.03125 49.31875Q587.03125 47.35 586.2031 46.365623Q585.3906 45.365623 584.2656 45.365623Q583.1406 45.365623 582.2656 46.428123Q581.40625 47.475 581.40625 49.475ZM597.6094 54.6L597.6094 53.06875Q596.40625 54.834373 594.3281 54.834373Q593.40625 54.834373 592.6094 54.490623Q591.8125 54.13125 591.4219 53.6Q591.0469 53.06875 590.8906 52.2875Q590.78125 51.771873 590.78125 50.646873L590.78125 44.225L592.53125 44.225L592.53125 49.975Q592.53125 51.35 592.6406 51.834373Q592.8125 52.521873 593.34375 52.928123Q593.8906 53.31875 594.6719 53.31875Q595.46875 53.31875 596.15625 52.9125Q596.8594 52.50625 597.1406 51.81875Q597.4375 51.115623 597.4375 49.7875L597.4375 44.225L599.1875 44.225L599.1875 54.6L597.6094 54.6ZM605.65625 53.021873L605.90625 54.584373Q605.1719 54.740623 604.5781 54.740623Q603.625 54.740623 603.09375 54.44375Q602.5781 54.13125 602.3594 53.646873Q602.1406 53.146873 602.1406 51.56875L602.1406 45.6L600.8594 45.6L600.8594 44.225L602.1406 44.225L602.1406 41.6625L603.8906 40.6L603.8906 44.225L605.65625 44.225L605.65625 45.6L603.8906 45.6L603.8906 51.6625Q603.8906 52.4125 603.9844 52.63125Q604.0781 52.834373 604.28125 52.975Q604.5 53.1 604.8906 53.1Q605.1719 53.1 605.65625 53.021873ZM614.59375 53.31875Q613.6094 54.146873 612.7031 54.490623Q611.7969 54.834373 610.7656 54.834373Q609.0625 54.834373 608.1406 54.00625Q607.21875 53.1625 607.21875 51.865623Q607.21875 51.1 607.5625 50.475Q607.9219 49.85 608.4844 49.475Q609.0469 49.084373 609.75 48.88125Q610.2656 48.75625 611.3125 48.615623Q613.4375 48.365623 614.4375 48.021873Q614.4531 47.6625 614.4531 47.553123Q614.4531 46.490623 613.9531 46.0375Q613.28125 45.44375 611.9531 45.44375Q610.7031 45.44375 610.1094 45.88125Q609.53125 46.31875 609.25 47.428123L607.53125 47.19375Q607.7656 46.084373 608.2969 45.4125Q608.8281 44.725 609.84375 44.365623Q610.8594 43.990623 612.2031 43.990623Q613.53125 43.990623 614.3594 44.303123Q615.1875 44.615623 615.5781 45.1Q615.96875 45.56875 616.125 46.2875Q616.21875 46.740623 616.21875 47.9125L616.21875 50.25625Q616.21875 52.709373 616.3281 53.365623Q616.4375 54.00625 616.78125 54.6L614.9375 54.6Q614.6719 54.053123 614.59375 53.31875ZM614.4375 49.396873Q613.4844 49.7875 611.5625 50.053123Q610.4844 50.209373 610.03125 50.4125Q609.59375 50.6 609.34375 50.975Q609.09375 51.35 609.09375 51.81875Q609.09375 52.521873 609.625 52.990623Q610.15625 53.459373 611.1875 53.459373Q612.2031 53.459373 612.9844 53.021873Q613.78125 52.56875 614.15625 51.803123Q614.4375 51.19375 614.4375 50.0375L614.4375 49.396873ZM622.65625 53.021873L622.90625 54.584373Q622.1719 54.740623 621.5781 54.740623Q620.625 54.740623 620.09375 54.44375Q619.5781 54.13125 619.3594 53.646873Q619.1406 53.146873 619.1406 51.56875L619.1406 45.6L617.8594 45.6L617.8594 44.225L619.1406 44.225L619.1406 41.6625L620.8906 40.6L620.8906 44.225L622.65625 44.225L622.65625 45.6L620.8906 45.6L620.8906 51.6625Q620.8906 52.4125 620.9844 52.63125Q621.0781 52.834373 621.28125 52.975Q621.5 53.1 621.8906 53.1Q622.1719 53.1 622.65625 53.021873ZM624.8281 42.303123L624.8281 40.2875L626.59375 40.2875L626.59375 42.303123L624.8281 42.303123ZM624.8281 54.6L624.8281 44.225L626.59375 44.225L626.59375 54.6L624.8281 54.6ZM628.1719 49.4125Q628.1719 46.5375 629.7656 45.146873Q631.1094 43.990623 633.03125 43.990623Q635.1719 43.990623 636.5156 45.396873Q637.875 46.803123 637.875 49.271873Q637.875 51.271873 637.28125 52.428123Q636.6875 53.56875 635.53125 54.209373Q634.3906 54.834373 633.03125 54.834373Q630.84375 54.834373 629.5 53.44375Q628.1719 52.0375 628.1719 49.4125ZM629.96875 49.4125Q629.96875 51.4125 630.8281 52.396873Q631.7031 53.38125 633.03125 53.38125Q634.34375 53.38125 635.2031 52.396873Q636.0781 51.396873 636.0781 49.35Q636.0781 47.428123 635.2031 46.44375Q634.3281 45.44375 633.03125 45.44375Q631.7031 45.44375 630.8281 46.44375Q629.96875 47.428123 629.96875 49.4125ZM639.8125 54.6L639.8125 44.225L641.40625 44.225L641.40625 45.709373Q642.5469 43.990623 644.7031 43.990623Q645.6406 43.990623 646.4219 44.334373Q647.21875 44.6625 647.6094 45.209373Q648.0 45.75625 648.15625 46.50625Q648.25 47.00625 648.25 48.225L648.25 54.6L646.4844 54.6L646.4844 48.2875Q646.4844 47.209373 646.28125 46.678123Q646.0781 46.146873 645.5469 45.834373Q645.03125 45.521873 644.3281 45.521873Q643.2031 45.521873 642.3906 46.240623Q641.5781 46.94375 641.5781 48.928123L641.5781 54.6L639.8125 54.6ZM660.6875 54.6L660.6875 41.975L655.96875 41.975L655.96875 40.2875L667.3125 40.2875L667.3125 41.975L662.5781 41.975L662.5781 54.6L660.6875 54.6ZM668.8281 42.303123L668.8281 40.2875L670.59375 40.2875L670.59375 42.303123L668.8281 42.303123ZM668.8281 54.6L668.8281 44.225L670.59375 44.225L670.59375 54.6L668.8281 54.6ZM672.8125 54.6L672.8125 44.225L674.3906 44.225L674.3906 45.678123Q674.875 44.928123 675.6875 44.459373Q676.5 43.990623 677.53125 43.990623Q678.6875 43.990623 679.4219 44.475Q680.15625 44.94375 680.46875 45.803123Q681.7031 43.990623 683.6719 43.990623Q685.21875 43.990623 686.0469 44.85Q686.875 45.709373 686.875 47.475L686.875 54.6L685.125 54.6L685.125 48.06875Q685.125 47.00625 684.9531 46.553123Q684.78125 46.084373 684.3281 45.803123Q683.8906 45.521873 683.28125 45.521873Q682.1875 45.521873 681.4531 46.25625Q680.7344 46.975 680.7344 48.56875L680.7344 54.6L678.9844 54.6L678.9844 47.865623Q678.9844 46.69375 678.5469 46.115623Q678.125 45.521873 677.1406 45.521873Q676.40625 45.521873 675.7656 45.9125Q675.1406 46.303123 674.8594 47.053123Q674.5781 47.803123 674.5781 49.225L674.5781 54.6L672.8125 54.6ZM696.9219 51.25625L698.7344 51.490623Q698.3125 53.06875 697.1406 53.959373Q695.9844 54.834373 694.1719 54.834373Q691.90625 54.834373 690.5625 53.44375Q689.2344 52.0375 689.2344 49.50625Q689.2344 46.88125 690.5781 45.44375Q691.9219 43.990623 694.0781 43.990623Q696.15625 43.990623 697.46875 45.4125Q698.7969 46.81875 698.7969 49.396873Q698.7969 49.553123 698.78125 49.865623L691.0469 49.865623Q691.1406 51.56875 692.0156 52.475Q692.8906 53.38125 694.1875 53.38125Q695.15625 53.38125 695.8281 52.88125Q696.5156 52.365623 696.9219 51.25625ZM691.1406 48.4125L696.9375 48.4125Q696.8281 47.115623 696.28125 46.459373Q695.4375 45.44375 694.09375 45.44375Q692.8906 45.44375 692.0625 46.25625Q691.2344 47.053123 691.1406 48.4125Z" fill-rule="nonzero"/></svg>